<?xml version="1.0" standalone="no"?>
<!DOCTYPE svg PUBLIC "-//W3C//DTD SVG 20010904//EN"
 "http://www.w3.org/TR/2001/REC-SVG-20010904/DTD/svg10.dtd">
<svg version="1.0" xmlns="http://www.w3.org/2000/svg"
 width="16.000000pt" height="16.000000pt" viewBox="0 0 16.000000 16.000000"
 preserveAspectRatio="xMidYMid meet">
<metadata>
Created by potrace 1.11, written by Peter Selinger 2001-2013
</metadata>
<g transform="translate(0.000000,16.000000) scale(0.006250,-0.006250)"
fill="#000000" stroke="none">
<path d="M1318 2525 c-2 -2 -21 -6 -43 -9 -94 -11 -202 -40 -290 -76 -90 -36
-202 -106 -235 -147 -49 -59 -72 -97 -140 -233 -31 -61 -65 -165 -74 -226 -12
-77 -19 -100 -46 -152 -32 -60 -31 -76 5 -163 28 -65 31 -95 13 -102 -10 -4
-10 -7 0 -15 23 -16 19 -75 -11 -162 -41 -115 -42 -198 -5 -261 15 -25 41 -97
59 -160 31 -113 52 -173 89 -255 11 -24 25 -78 31 -121 13 -90 22 -110 79
-182 56 -71 108 -92 220 -93 118 0 190 12 305 52 137 47 292 135 395 223 40
34 178 158 224 201 17 16 77 67 133 113 l101 85 -14 41 c-8 22 -19 46 -25 53
-7 9 -6 28 6 66 8 29 18 76 21 103 4 28 15 64 25 81 27 45 49 142 45 198 -3
26 0 59 5 73 22 59 28 327 9 447 -14 95 -49 204 -84 267 -89 159 -298 298
-513 343 -59 13 -275 21 -285 11z"/>
</g>
</svg>
