<?xml version="1.0" standalone="no"?>
<!DOCTYPE svg PUBLIC "-//W3C//DTD SVG 20010904//EN"
 "http://www.w3.org/TR/2001/REC-SVG-20010904/DTD/svg10.dtd">
<svg version="1.0" xmlns="http://www.w3.org/2000/svg"
 width="16.000000pt" height="16.000000pt" viewBox="0 0 16.000000 16.000000"
 preserveAspectRatio="xMidYMid meet">
<metadata>
Created by potrace 1.11, written by Peter Selinger 2001-2013
</metadata>
<g transform="translate(0.000000,16.000000) scale(0.006250,-0.006250)"
fill="#000000" stroke="none">
<path d="M892 2544 c-24 -16 -28 -44 -11 -75 5 -11 11 -86 13 -167 2 -84 9
-164 16 -187 16 -50 17 -48 30 110 7 72 13 141 15 155 3 29 32 127 46 152 5
10 9 20 9 23 0 12 -98 4 -118 -11z"/>
<path d="M1082 2535 c-12 -14 -27 -25 -33 -25 -8 0 -8 -4 0 -14 10 -11 9 -21
-3 -44 -12 -24 -13 -36 -3 -70 7 -22 15 -44 19 -47 7 -7 -9 -42 -28 -60 -5 -5
-22 -27 -37 -47 -27 -37 -34 -58 -19 -58 9 0 3 -70 -7 -85 -7 -10 -6 -123 1
-157 2 -10 14 -28 26 -41 25 -27 28 -51 8 -89 -8 -15 -18 -42 -22 -60 -9 -36
-6 -197 4 -213 3 -5 7 -16 8 -25 1 -8 4 -26 7 -40 40 -187 62 -254 107 -325
22 -36 25 -49 23 -128 -1 -48 -7 -95 -12 -105 -9 -15 -10 -15 -11 -1 0 21 -24
31 -39 16 -8 -8 -11 -8 -11 0 0 6 14 23 32 37 44 34 30 42 -34 18 -43 -16 -59
-28 -85 -68 -18 -27 -38 -57 -45 -67 -7 -10 -12 -23 -10 -28 1 -5 -2 -9 -8 -9
-16 0 -12 78 6 112 l16 31 -38 -7 c-22 -4 -51 -8 -65 -9 -27 -3 -106 -74 -102
-92 3 -16 -44 -46 -61 -39 -17 7 -22 44 -6 44 6 0 10 7 10 15 0 7 7 18 16 23
13 7 10 11 -18 16 -31 6 -88 -6 -113 -24 -5 -4 -43 -10 -84 -14 -40 -3 -78 -9
-84 -13 -14 -9 29 -24 48 -17 10 4 15 0 15 -15 0 -17 -3 -20 -16 -13 -16 9
-79 0 -91 -12 -3 -3 0 -13 8 -23 12 -15 12 -16 -4 -10 -10 4 -21 7 -23 7 -2 0
-4 10 -4 21 0 19 -2 20 -16 8 -10 -8 -12 -15 -5 -17 15 -5 4 -22 -14 -22 -8 0
-12 6 -9 14 9 24 -25 27 -38 3 -7 -12 -13 -26 -13 -32 0 -5 -15 -9 -33 -7 -17
1 -32 -2 -32 -8 0 -5 6 -7 14 -4 8 3 17 1 21 -5 3 -6 1 -11 -4 -11 -21 0 -11
-19 12 -22 12 -3 -9 -5 -47 -6 -71 -1 -108 -12 -43 -12 21 0 37 -5 37 -11 0
-5 -8 -9 -17 -8 -10 1 -20 0 -23 -1 -19 -6 -68 -8 -85 -3 -17 6 -16 8 10 13
23 4 29 10 29 30 1 21 -5 26 -30 28 l-31 3 -2 -355 -1 -356 1280 0 1280 0 0
32 c0 25 -3 29 -12 20 -15 -15 -58 -16 -58 -1 0 6 9 8 20 4 12 -4 20 -2 20 5
0 6 -4 8 -10 5 -5 -3 -10 -1 -10 5 0 6 6 10 13 9 37 -5 38 -1 35 113 -3 109
-4 113 -25 116 -13 2 -23 8 -23 14 0 6 11 8 27 3 23 -5 25 -4 14 9 -9 11 -10
16 -2 16 8 0 11 107 11 386 l0 385 -22 -6 c-13 -4 -27 -11 -32 -16 -6 -5 -19
-9 -30 -9 -15 0 -17 3 -8 8 9 6 4 16 -18 35 -16 15 -34 27 -40 27 -5 0 -10 4
-10 9 0 5 -8 12 -18 15 -22 7 -87 64 -87 76 0 12 -46 50 -60 50 -13 0 -65 52
-65 66 0 5 -19 18 -42 29 -22 11 -43 28 -46 37 -5 21 -12 22 -47 6 -21 -9 -28
-9 -35 1 -6 10 -10 9 -19 -5 -6 -11 -11 -16 -11 -11 -1 26 24 42 60 39 40 -4
84 13 75 29 -4 5 2 9 12 9 10 0 14 4 8 8 -5 4 -11 26 -13 49 -2 39 0 43 20 40
13 -1 29 -8 36 -14 13 -13 33 -17 60 -14 6 1 12 -3 12 -9 0 -5 7 -10 15 -10 8
0 15 5 15 10 0 6 -7 10 -15 10 -8 0 -15 5 -15 10 0 6 -7 10 -15 10 -8 0 -15 5
-15 10 0 6 -10 10 -23 10 -41 0 -77 60 -49 82 9 7 13 8 9 2 -4 -7 0 -14 8 -17
8 -4 12 -1 9 7 -3 7 7 18 21 26 14 7 25 17 25 22 0 5 5 6 10 3 11 -7 14 18 3
29 -28 28 17 100 69 109 49 8 122 43 156 75 12 11 12 18 3 39 -6 14 -9 28 -7
31 3 2 10 -8 16 -23 9 -23 14 -26 38 -20 15 4 29 8 31 10 8 8 -10 75 -21 75
-6 0 -8 13 -3 36 4 24 3 34 -4 29 -6 -3 -11 -1 -11 4 0 6 4 11 9 11 5 0 7 9 4
20 -3 11 -1 20 5 20 17 0 4 201 -20 312 l-12 57 -686 1 -686 0 -22 -25z m1148
5 c0 -5 -4 -10 -9 -10 -6 0 -13 5 -16 10 -3 6 1 10 9 10 9 0 16 -4 16 -10z
m-115 -20 c3 -5 -3 -10 -14 -10 -12 0 -21 5 -21 10 0 6 6 10 14 10 8 0 18 -4
21 -10z m-34 -49 c-10 -7 -8 -12 10 -25 l24 -17 -30 7 c-41 9 -45 12 -38 29 3
8 15 15 27 15 15 0 17 -3 7 -9z m349 -366 c0 -5 -5 -3 -10 5 -5 8 -10 20 -10
25 0 6 5 3 10 -5 5 -8 10 -19 10 -25z m-120 -56 c0 -5 4 -7 10 -4 5 3 7 0 4
-8 -3 -9 -14 -12 -29 -9 -14 2 -36 -3 -50 -12 -29 -19 -39 -20 -29 -4 5 8 2 9
-9 5 -10 -4 -24 -10 -34 -14 -10 -4 -14 -3 -9 5 11 18 66 41 83 35 11 -4 14
-2 9 5 -5 8 3 12 23 12 17 0 31 -5 31 -11z m-685 -16 c3 -10 2 -19 -3 -21 -6
-2 -7 -12 -5 -24 7 -25 -15 -41 -34 -23 -16 17 -17 32 0 38 9 3 9 7 0 19 -7 8
-10 18 -6 21 13 13 41 7 48 -10z m-5 -114 c12 -9 11 -10 -7 -6 -19 4 -23 1
-23 -21 0 -22 2 -24 10 -12 8 11 9 8 4 -12 -4 -18 -2 -28 5 -28 6 0 11 -14 11
-31 0 -27 -3 -30 -22 -24 -13 4 -31 9 -40 11 -10 3 -18 14 -18 25 0 10 -6 19
-12 19 -7 0 2 13 21 29 19 15 31 33 27 39 -3 5 0 13 6 15 19 8 22 8 38 -4z
m-175 -166 c-21 -32 -30 -19 -15 22 8 21 14 25 22 17 8 -8 6 -18 -7 -39z m-54
-56 c-10 -9 -11 -8 -5 6 3 10 9 15 12 12 3 -3 0 -11 -7 -18z m719 -67 c0 -5
-5 -10 -11 -10 -5 0 -7 5 -4 10 3 6 8 10 11 10 2 0 4 -4 4 -10z m-130 -151
c-7 -11 -14 -18 -17 -15 -3 3 0 12 7 21 18 21 23 19 10 -6z m-1370 -610 c0 -6
9 -9 20 -6 11 3 20 2 20 -3 0 -4 -10 -10 -22 -13 -13 -2 -31 -8 -41 -12 -16
-7 -16 -5 -6 19 12 26 29 35 29 15z m-127 -44 c-3 -9 -8 -14 -10 -11 -3 3 -2
9 2 15 9 16 15 13 8 -4z m1752 -15 c10 -11 16 -20 13 -20 -3 0 -13 9 -23 20
-10 11 -16 20 -13 20 3 0 13 -9 23 -20z m56 -38 c-7 -2 -18 1 -23 6 -8 8 -4 9
13 5 13 -4 18 -8 10 -11z m-1631 -12 c0 -11 5 -20 10 -20 6 0 10 -5 10 -11 0
-7 -10 -9 -27 -5 -16 4 -23 3 -16 -1 7 -5 9 -14 4 -22 -6 -10 -11 -5 -16 18
-4 20 -2 37 5 46 17 21 30 19 30 -5z m-400 -40 c0 -5 -4 -10 -10 -10 -5 0 -10
5 -10 10 0 6 5 10 10 10 6 0 10 -4 10 -10z m-164 -127 c-10 -10 -19 5 -10 18
6 11 8 11 12 0 2 -7 1 -15 -2 -18z m50 -17 c8 -8 14 -17 14 -19 0 -10 -70 -5
-77 6 -4 6 2 8 15 5 15 -4 22 -2 22 8 0 18 8 18 26 0z m-106 -26 c0 -5 -4 -10
-9 -10 -6 0 -13 5 -16 10 -3 6 1 10 9 10 9 0 16 -4 16 -10z m164 -75 c-4 -8
-7 -15 -9 -15 -2 0 -5 7 -9 15 -3 9 0 15 9 15 9 0 12 -6 9 -15z"/>
<path d="M133 2373 c9 -2 23 -2 30 0 6 3 -1 5 -18 5 -16 0 -22 -2 -12 -5z"/>
<path d="M2535 2230 c-3 -5 -2 -10 4 -10 5 0 13 5 16 10 3 6 2 10 -4 10 -5 0
-13 -4 -16 -10z"/>
<path d="M2530 1836 c0 -9 7 -16 16 -16 17 0 14 22 -4 28 -7 2 -12 -3 -12 -12z"/>
<path d="M913 1681 c1 -42 6 -66 15 -69 9 -3 11 7 6 40 -14 83 -23 96 -21 29z"/>
<path d="M945 1530 c3 -5 8 -10 11 -10 2 0 4 5 4 10 0 6 -5 10 -11 10 -5 0 -7
-4 -4 -10z"/>
<path d="M710 901 c0 -17 32 -21 46 -6 14 13 12 15 -15 15 -17 0 -31 -4 -31
-9z"/>
<path d="M238 833 c7 -3 16 -2 19 1 4 3 -2 6 -13 5 -11 0 -14 -3 -6 -6z"/>
<path d="M308 833 c12 -2 32 -2 45 0 12 2 2 4 -23 4 -25 0 -35 -2 -22 -4z"/>
<path d="M95 690 c4 -6 11 -8 16 -5 14 9 11 15 -7 15 -8 0 -12 -5 -9 -10z"/>
</g>
</svg>
