<?xml version="1.0" encoding="utf-8"?>
<!-- Generator: Adobe Illustrator 21.0.0, SVG Export Plug-In . SVG Version: 6.00 Build 0)  -->
<svg version="1.1" id="Layer_1" xmlns="http://www.w3.org/2000/svg" xmlns:xlink="http://www.w3.org/1999/xlink" x="0px" y="0px"
	 viewBox="0 0 48.8 68" style="enable-background:new 0 0 48.8 68;" xml:space="preserve">
<style type="text/css">
	.st0{fill:#231F20;}
	.st1{clip-path:url(#SVGID_2_);fill:#231F20;}
	.st2{fill:none;stroke:#231F20;}
</style>
<g>
	<polyline class="st0" points="43,27.6 46.1,30.7 34.1,42.4 31.7,40 43,27.4 	"/>
	<g>
		<defs>
			<rect id="SVGID_1_" width="48.8" height="68"/>
		</defs>
		<clipPath id="SVGID_2_">
			<use xlink:href="#SVGID_1_"  style="overflow:visible;"/>
		</clipPath>
		<path class="st1" d="M41.5,30.2c0,0-20.7-10-30.9,10.3C23.9,32.8,34,42.8,34,42.8l7.7-9.2L41.5,30.2z"/>
		<path class="st1" d="M7.1,58.8c0,0,12.2-3.5,12.2-25.4c0-19.4-0.3-18.8,3.1-22.2c-5.6,0.3-12.8,10-12.8,14.4
			c-8.1,3.8-6.6,11-5.3,13.8L5.6,42c0,0,1.3-6.2,2.8-5.2C9.9,37.7,11.1,43,7.1,58.8"/>
		<path class="st1" d="M48.8,13.4c0,0-10.7-10.1-29-10.5C3.7,2.6,4.2,2.9,1.4,0c0.2,4.7,4.8,9.2,9.2,11.3C19.3,16.2,37,11,48.8,13.4
			"/>
		<path class="st1" d="M43.1,58.5c0,0-23-16.3-43.1,9.4c14-8.1,25.5-6.2,30.3,0.1c10-5.7,14.6-7.1,14.6-7.1L43.1,58.5z"/>
	</g>
	<line class="st2" x1="22.9" y1="11.9" x2="22.9" y2="55"/>
	<polyline class="st0" points="27.2,8 25.1,8 25.1,58.8 26.6,58.8 27.2,58.8 27.2,20.3 27.2,7.7 	"/>
</g>
</svg>
