<?xml version="1.0" encoding="utf-8"?>
<!-- Generator: Adobe Illustrator 21.0.0, SVG Export Plug-In . SVG Version: 6.00 Build 0)  -->
<svg version="1.1" id="Layer_1" xmlns="http://www.w3.org/2000/svg" xmlns:xlink="http://www.w3.org/1999/xlink" x="0px" y="0px"
	 viewBox="0 0 59.8 69.4" style="enable-background:new 0 0 59.8 69.4;" xml:space="preserve">
<style type="text/css">
	.st0{clip-path:url(#SVGID_2_);fill:#231F20;}
	.st1{fill:#231F20;}
	.st2{clip-path:url(#SVGID_4_);fill:#231F20;}
</style>
<g>
	<g>
		<defs>
			<rect id="SVGID_1_" y="0" width="59.8" height="69.4"/>
		</defs>
		<clipPath id="SVGID_2_">
			<use xlink:href="#SVGID_1_"  style="overflow:visible;"/>
		</clipPath>
		<path class="st0" d="M59,38.1c0,0-19.4-16.2-38.5,8c11.7-6.8,21.3-5.5,26.8-1.8c1.9,1.2,4,3.8,4.6,4.6c4.2-6.6,6.6-7.8,6.6-7.8
			L59,38.1z"/>
		<path class="st0" d="M58.9,38.2c0,0-7.7,1.9-7.5,16.4c0.2,12.9,0.4,12.4-1.8,14.8c3.7-0.3,7.2-4.1,8.7-7.6
			C62,54.7,57.4,47.7,58.9,38.2"/>
		<path class="st0" d="M35,10.9c0,0-10.4,2.6-10.1,22.3c0.3,17.4,0.6,16.9-2.5,20c5-0.4,9.7-5.5,11.8-10.3
			C39.2,33.3,32.9,23.7,35,10.9"/>
	</g>
	<polyline class="st1" points="45.8,10.8 43.8,10.8 43.8,58.6 45.3,58.6 45.8,58.6 45.8,22.4 45.8,10.4 	"/>
	<g>
		<defs>
			<rect id="SVGID_3_" y="0" width="59.8" height="69.4"/>
		</defs>
		<clipPath id="SVGID_4_">
			<use xlink:href="#SVGID_3_"  style="overflow:visible;"/>
		</clipPath>
		<path class="st2" d="M10.1,27.9c0,0,8.1,4,16.6,0c0,11.9,0.8,9.3,0.8,9.3s-8.1-3.3-15.8,0.3C11.7,26.5,10.1,27.9,10.1,27.9"/>
		<path class="st2" d="M42,2.3c0,0,6.4,6,13.9-0.2C53.5,14,38.6,13.1,38.6,13.1l-6.9-0.7L42,2.3z"/>
		<path class="st2" d="M27.7,0C27.7,0-7,11.4,1.3,45c7.2,23.1,40.5,30.8,56.4,2.4c-18.2,13.1-40.5,12.4-45-9.2
			C8.8,21.6,27.7,0,27.7,0"/>
	</g>
	<polygon class="st1" points="21.1,17 22.2,21.6 42.9,3.1 39.7,0.6 	"/>
</g>
</svg>
