<?xml version="1.0" encoding="utf-8"?>
<!-- Generator: Adobe Illustrator 21.0.0, SVG Export Plug-In . SVG Version: 6.00 Build 0)  -->
<svg version="1.1" id="Layer_1" xmlns="http://www.w3.org/2000/svg" xmlns:xlink="http://www.w3.org/1999/xlink" x="0px" y="0px"
	 viewBox="0 0 58.4 67.9" style="enable-background:new 0 0 58.4 67.9;" xml:space="preserve">
<style type="text/css">
	.st0{clip-path:url(#SVGID_2_);fill:#231F20;}
	.st1{fill:#231F20;}
	.st2{clip-path:url(#SVGID_4_);fill:#231F20;}
	.st3{clip-path:url(#SVGID_6_);fill:none;stroke:#231F20;stroke-width:6;stroke-linejoin:bevel;}
</style>
<g>
	<g>
		<defs>
			<rect id="SVGID_1_" width="58.4" height="67.9"/>
		</defs>
		<clipPath id="SVGID_2_">
			<use xlink:href="#SVGID_1_"  style="overflow:visible;"/>
		</clipPath>
		<path class="st0" d="M31.7,9.1c0,0-12.1,2.9-11.7,25c0.4,19.6,0.7,18.9-2.8,22.5c5.8-0.4,11.3-6.2,13.7-11.6
			C36.6,34.3,29.3,23.6,31.7,9.1"/>
	</g>
	<polygon class="st1" points="39.7,0 39.7,0.5 35.6,0.5 35.6,64.5 38.7,64.5 39.7,64.5 39.7,16 	"/>
	<g>
		<defs>
			<rect id="SVGID_3_" width="58.4" height="67.9"/>
		</defs>
		<clipPath id="SVGID_4_">
			<use xlink:href="#SVGID_3_"  style="overflow:visible;"/>
		</clipPath>
		<path class="st2" d="M37.5,31.5c0,0,9.1,4.3,18.6,0c0,12.8,0.9,9.9,0.9,9.9s-9.1-3.5-17.7,0.3C39.3,29.9,37.5,31.5,37.5,31.5"/>
	</g>
	<polygon class="st1" points="12.5,20.1 13.3,25.6 39.4,6 35.9,2.8 	"/>
	<g>
		<defs>
			<rect id="SVGID_5_" width="58.4" height="67.9"/>
		</defs>
		<clipPath id="SVGID_6_">
			<use xlink:href="#SVGID_5_"  style="overflow:visible;"/>
		</clipPath>
		<path class="st3" d="M29.2,6C15.1,6,3.6,19.1,3.6,35.2c0,16.1,11.5,29.1,25.5,29.1s25.5-13.1,25.5-29.1c0-12-6.6-23-16.5-27.2"/>
	</g>
	<polygon class="st1" points="15.1,11 15.1,58.2 2.6,34 	"/>
</g>
</svg>
