<?xml version="1.0" encoding="utf-8"?>
<!-- Generator: Adobe Illustrator 21.0.0, SVG Export Plug-In . SVG Version: 6.00 Build 0)  -->
<svg version="1.1" id="Layer_1" xmlns="http://www.w3.org/2000/svg" xmlns:xlink="http://www.w3.org/1999/xlink" x="0px" y="0px"
	 viewBox="0 0 644.1 136" style="enable-background:new 0 0 644.1 136;" xml:space="preserve">
<style type="text/css">
	.st0{fill:#EE243D;}
	.st1{fill:#D99B3F;}
	.st2{fill:#DA1F26;}
	.st3{fill:#5C2831;}
	.st4{fill:#3C4651;}
	.st5{fill:#74462B;}
	.st6{fill:#8C5043;}
	.st7{fill:#9C8789;}
	.st8{fill:#97665D;}
	.st9{fill:#A8675D;}
	.st10{fill:#DEA086;}
	.st11{fill:#643925;}
	.st12{fill:#2E6035;}
	.st13{fill:#135E8A;}
	.st14{fill:#AA685D;}
	.st15{fill:#D3917A;}
	.st16{fill:#D99C76;}
	.st17{fill:#CC7F55;}
	.st18{fill:#C1839A;}
	.st19{fill:#B1ADC3;}
	.st20{fill:#E19D81;}
	.st21{fill:#D8A18A;}
	.st22{fill:#3A7FBE;}
	.st23{fill:#DCA68E;}
	.st24{fill:#6B7E9D;}
	.st25{fill:#A7AABE;}
	.st26{fill:#005F92;}
	.st27{fill:#004567;}
	.st28{fill:#1A7AB7;}
	.st29{fill:#525352;}
</style>
<rect class="st0" width="644.1" height="136"/>
<rect x="98.1" y="26" class="st1" width="439.9" height="84"/>
<rect x="161" y="38" width="314.2" height="60"/>
<rect x="161.1" y="38" class="st2" width="15" height="15"/>
<rect x="161.1" y="53" class="st3" width="15" height="15"/>
<rect x="161.1" y="68" class="st4" width="15" height="15"/>
<rect x="161.1" y="83" class="st5" width="15" height="15"/>
<rect x="176.1" y="38" class="st6" width="15" height="15"/>
<rect x="176.1" y="53" class="st7" width="15" height="15"/>
<rect x="176.1" y="68" class="st8" width="15" height="15"/>
<rect x="176.1" y="83" class="st9" width="15" height="15"/>
<rect x="191.1" y="38" class="st10" width="15" height="15"/>
<rect x="191.1" y="53" class="st11" width="15" height="15"/>
<rect x="191.1" y="68" class="st12" width="15" height="15"/>
<rect x="191.1" y="83" class="st13" width="15" height="15"/>
<rect x="206.1" y="38" class="st14" width="15" height="15"/>
<rect x="206.1" y="53" class="st15" width="15" height="15"/>
<rect x="206.1" y="68" class="st16" width="15" height="15"/>
<rect x="206.1" y="83" class="st17" width="15" height="15"/>
<rect x="221.1" y="38" class="st18" width="15" height="15"/>
<rect x="221.1" y="53" class="st19" width="15" height="15"/>
<rect x="221.1" y="68" class="st20" width="15" height="15"/>
<rect x="221.1" y="83" class="st21" width="15" height="15"/>
<rect x="236.1" y="38" class="st22" width="15" height="15"/>
<rect x="236.1" y="53" class="st23" width="15" height="15"/>
<rect x="236.1" y="68" class="st23" width="15" height="15"/>
<rect x="236.1" y="83" class="st24" width="15" height="15"/>
<rect x="251.1" y="38" class="st25" width="15" height="15"/>
<rect x="251.1" y="53" class="st26" width="15" height="15"/>
<rect x="251.1" y="68" class="st27" width="15" height="15"/>
<rect x="251.1" y="83" class="st28" width="15" height="15"/>
<rect x="356.1" y="83" transform="matrix(-1 -1.224647e-16 1.224647e-16 -1 727.2391 181)" class="st2" width="15" height="15"/>
<rect x="356.1" y="68" transform="matrix(-1 -1.224647e-16 1.224647e-16 -1 727.2391 151)" class="st3" width="15" height="15"/>
<rect x="356.1" y="53" transform="matrix(-1 -1.224647e-16 1.224647e-16 -1 727.2391 121)" class="st4" width="15" height="15"/>
<rect x="356.1" y="38" transform="matrix(-1 -1.224647e-16 1.224647e-16 -1 727.2391 91)" class="st5" width="15" height="15"/>
<rect x="341.1" y="83" transform="matrix(-1 -1.224647e-16 1.224647e-16 -1 697.2391 181)" class="st6" width="15" height="15"/>
<rect x="341.1" y="68" transform="matrix(-1 -1.224647e-16 1.224647e-16 -1 697.2391 151)" class="st7" width="15" height="15"/>
<rect x="341.1" y="53" transform="matrix(-1 -1.224647e-16 1.224647e-16 -1 697.2391 121)" class="st8" width="15" height="15"/>
<rect x="341.1" y="38" transform="matrix(-1 -1.224647e-16 1.224647e-16 -1 697.2391 91)" class="st9" width="15" height="15"/>
<rect x="326.1" y="83" transform="matrix(-1 -1.224647e-16 1.224647e-16 -1 667.2391 181)" class="st10" width="15" height="15"/>
<rect x="326.1" y="68" transform="matrix(-1 -1.224647e-16 1.224647e-16 -1 667.2391 151)" class="st11" width="15" height="15"/>
<rect x="326.1" y="53" transform="matrix(-1 -1.224647e-16 1.224647e-16 -1 667.2391 121)" class="st12" width="15" height="15"/>
<rect x="326.1" y="38" transform="matrix(-1 -1.224647e-16 1.224647e-16 -1 667.2391 91)" class="st13" width="15" height="15"/>
<rect x="311.1" y="83" transform="matrix(-1 -1.224647e-16 1.224647e-16 -1 637.2391 181)" class="st14" width="15" height="15"/>
<rect x="311.1" y="68" transform="matrix(-1 -1.224647e-16 1.224647e-16 -1 637.2391 151)" class="st15" width="15" height="15"/>
<rect x="311.1" y="53" transform="matrix(-1 -1.224647e-16 1.224647e-16 -1 637.2391 121)" class="st16" width="15" height="15"/>
<rect x="311.1" y="38" transform="matrix(-1 -1.224647e-16 1.224647e-16 -1 637.2391 91)" class="st17" width="15" height="15"/>
<rect x="296.1" y="83" transform="matrix(-1 -1.224647e-16 1.224647e-16 -1 607.2391 181)" class="st18" width="15" height="15"/>
<rect x="296.1" y="68" transform="matrix(-1 -1.224647e-16 1.224647e-16 -1 607.2391 151)" class="st19" width="15" height="15"/>
<rect x="296.1" y="53" transform="matrix(-1 -1.224647e-16 1.224647e-16 -1 607.2391 121)" class="st20" width="15" height="15"/>
<rect x="296.1" y="38" transform="matrix(-1 -1.224647e-16 1.224647e-16 -1 607.2391 91)" class="st21" width="15" height="15"/>
<rect x="281.1" y="83" transform="matrix(-1 -1.224647e-16 1.224647e-16 -1 577.2391 181)" class="st22" width="15" height="15"/>
<rect x="281.1" y="68" transform="matrix(-1 -1.224647e-16 1.224647e-16 -1 577.2391 151)" class="st23" width="15" height="15"/>
<rect x="281.1" y="53" transform="matrix(-1 -1.224647e-16 1.224647e-16 -1 577.2391 121)" class="st23" width="15" height="15"/>
<rect x="281.1" y="38" transform="matrix(-1 -1.224647e-16 1.224647e-16 -1 577.2391 91)" class="st24" width="15" height="15"/>
<rect x="266.1" y="83" transform="matrix(-1 -1.224647e-16 1.224647e-16 -1 547.2391 181)" class="st25" width="15" height="15"/>
<rect x="266.1" y="68" transform="matrix(-1 -1.224647e-16 1.224647e-16 -1 547.2391 151)" class="st26" width="15" height="15"/>
<rect x="266.1" y="53" transform="matrix(-1 -1.224647e-16 1.224647e-16 -1 547.2391 121)" class="st27" width="15" height="15"/>
<rect x="266.1" y="38" transform="matrix(-1 -1.224647e-16 1.224647e-16 -1 547.2391 91)" class="st28" width="15" height="15"/>
<rect x="461.1" y="83" transform="matrix(-1 -1.224647e-16 1.224647e-16 -1 937.2391 181)" class="st2" width="15" height="15"/>
<rect x="461.1" y="68" transform="matrix(-1 -1.224647e-16 1.224647e-16 -1 937.2391 151)" class="st3" width="15" height="15"/>
<rect x="461.1" y="53" transform="matrix(-1 -1.224647e-16 1.224647e-16 -1 937.2391 121)" class="st4" width="15" height="15"/>
<rect x="461.1" y="38" transform="matrix(-1 -1.224647e-16 1.224647e-16 -1 937.2391 91)" class="st5" width="15" height="15"/>
<rect x="446.1" y="83" transform="matrix(-1 -1.224647e-16 1.224647e-16 -1 907.2391 181)" class="st6" width="15" height="15"/>
<rect x="446.1" y="68" transform="matrix(-1 -1.224647e-16 1.224647e-16 -1 907.2391 151)" class="st7" width="15" height="15"/>
<rect x="446.1" y="53" transform="matrix(-1 -1.224647e-16 1.224647e-16 -1 907.2391 121)" class="st8" width="15" height="15"/>
<rect x="446.1" y="38" transform="matrix(-1 -1.224647e-16 1.224647e-16 -1 907.2391 91)" class="st18" width="15" height="15"/>
<rect x="431.1" y="83" transform="matrix(-1 -1.224647e-16 1.224647e-16 -1 877.2391 181)" class="st10" width="15" height="15"/>
<rect x="431.1" y="68" transform="matrix(-1 -1.224647e-16 1.224647e-16 -1 877.2391 151)" class="st11" width="15" height="15"/>
<rect x="431.1" y="53" transform="matrix(-1 -1.224647e-16 1.224647e-16 -1 877.2391 121)" class="st2" width="15" height="15"/>
<rect x="431.1" y="38" transform="matrix(-1 -1.224647e-16 1.224647e-16 -1 877.2391 91)" class="st13" width="15" height="15"/>
<rect x="416.1" y="83" transform="matrix(-1 -1.224647e-16 1.224647e-16 -1 847.2391 181)" class="st14" width="15" height="15"/>
<rect x="416.1" y="68" transform="matrix(-1 -1.224647e-16 1.224647e-16 -1 847.2391 151)" class="st15" width="15" height="15"/>
<rect x="416.1" y="53" transform="matrix(-1 -1.224647e-16 1.224647e-16 -1 847.2391 121)" class="st16" width="15" height="15"/>
<rect x="416.1" y="38" transform="matrix(-1 -1.224647e-16 1.224647e-16 -1 847.2391 91)" class="st17" width="15" height="15"/>
<rect x="401.1" y="83" transform="matrix(-1 -1.224647e-16 1.224647e-16 -1 817.2391 181)" class="st18" width="15" height="15"/>
<rect x="401.1" y="68" transform="matrix(-1 -1.224647e-16 1.224647e-16 -1 817.2391 151)" class="st19" width="15" height="15"/>
<rect x="401.1" y="53" transform="matrix(-1 -1.224647e-16 1.224647e-16 -1 817.2391 121)" class="st18" width="15" height="15"/>
<rect x="401.1" y="38" transform="matrix(-1 -1.224647e-16 1.224647e-16 -1 817.2391 91)" class="st21" width="15" height="15"/>
<rect x="386.1" y="83" transform="matrix(-1 -1.224647e-16 1.224647e-16 -1 787.2391 181)" class="st21" width="15" height="15"/>
<rect x="386.1" y="68" transform="matrix(-1 -1.224647e-16 1.224647e-16 -1 787.2391 151)" class="st23" width="15" height="15"/>
<rect x="386.1" y="53" transform="matrix(-1 -1.224647e-16 1.224647e-16 -1 787.2391 121)" class="st5" width="15" height="15"/>
<rect x="386.1" y="38" transform="matrix(-1 -1.224647e-16 1.224647e-16 -1 787.2391 91)" class="st24" width="15" height="15"/>
<rect x="371.1" y="83" transform="matrix(-1 -1.224647e-16 1.224647e-16 -1 757.2391 181)" class="st25" width="15" height="15"/>
<rect x="371.1" y="68" transform="matrix(-1 -1.224647e-16 1.224647e-16 -1 757.2391 151)" class="st29" width="15" height="15"/>
<rect x="371.1" y="53" transform="matrix(-1 -1.224647e-16 1.224647e-16 -1 757.2391 121)" class="st5" width="15" height="15"/>
<rect x="371.1" y="38" transform="matrix(-1 -1.224647e-16 1.224647e-16 -1 757.2391 91)" class="st28" width="15" height="15"/>
</svg>
