<svg id="Layer_1" xmlns="http://www.w3.org/2000/svg" width="644.1" height="136" viewBox="0 0 644.1 136"><style>.st0{fill:#EE243D;} .st1{fill:#D99B3F;} .st2{fill:#DA1F26;} .st3{fill:#5C2831;} .st4{fill:#3C4651;} .st5{fill:#74462B;} .st6{fill:#8C5043;} .st7{fill:#9C8789;} .st8{fill:#97665D;} .st9{fill:#A8675D;} .st10{fill:#DEA086;} .st11{fill:#643925;} .st12{fill:#2E6035;} .st13{fill:#135E8A;} .st14{fill:#AA685D;} .st15{fill:#D3917A;} .st16{fill:#D99C76;} .st17{fill:#CC7F55;} .st18{fill:#C1839A;} .st19{fill:#B1ADC3;} .st20{fill:#E19D81;} .st21{fill:#D8A18A;} .st22{fill:#3A7FBE;} .st23{fill:#DCA68E;} .st24{fill:#6B7E9D;} .st25{fill:#A7AABE;} .st26{fill:#005F92;} .st27{fill:#004567;} .st28{fill:#1A7AB7;} .st29{fill:#525352;}</style><path class="st0" d="M0 0h644.1v136H0z"/><path class="st1" d="M98.1 26H538v84H98.1z"/><path d="M161 38h314.2v60H161z"/><path class="st2" d="M161.1 38h15v15h-15z"/><path class="st3" d="M161.1 53h15v15h-15z"/><path class="st4" d="M161.1 68h15v15h-15z"/><path class="st5" d="M161.1 83h15v15h-15z"/><path class="st6" d="M176.1 38h15v15h-15z"/><path class="st7" d="M176.1 53h15v15h-15z"/><path class="st8" d="M176.1 68h15v15h-15z"/><path class="st9" d="M176.1 83h15v15h-15z"/><path class="st10" d="M191.1 38h15v15h-15z"/><path class="st11" d="M191.1 53h15v15h-15z"/><path class="st12" d="M191.1 68h15v15h-15z"/><path class="st13" d="M191.1 83h15v15h-15z"/><path class="st14" d="M206.1 38h15v15h-15z"/><path class="st15" d="M206.1 53h15v15h-15z"/><path class="st16" d="M206.1 68h15v15h-15z"/><path class="st17" d="M206.1 83h15v15h-15z"/><path class="st18" d="M221.1 38h15v15h-15z"/><path class="st19" d="M221.1 53h15v15h-15z"/><path class="st20" d="M221.1 68h15v15h-15z"/><path class="st21" d="M221.1 83h15v15h-15z"/><path class="st22" d="M236.1 38h15v15h-15z"/><path class="st23" d="M236.1 53h15v15h-15zM236.1 68h15v15h-15z"/><path class="st24" d="M236.1 83h15v15h-15z"/><path class="st25" d="M251.1 38h15v15h-15z"/><path class="st26" d="M251.1 53h15v15h-15z"/><path class="st27" d="M251.1 68h15v15h-15z"/><path class="st28" d="M251.1 83h15v15h-15z"/><path class="st2" d="M356.1 83h15v15h-15z"/><path class="st3" d="M356.1 68h15v15h-15z"/><path class="st4" d="M356.1 53h15v15h-15z"/><path class="st5" d="M356.1 38h15v15h-15z"/><path class="st6" d="M341.1 83h15v15h-15z"/><path class="st7" d="M341.1 68h15v15h-15z"/><path class="st8" d="M341.1 53h15v15h-15z"/><path class="st9" d="M341.1 38h15v15h-15z"/><path class="st10" d="M326.1 83h15v15h-15z"/><path class="st11" d="M326.1 68h15v15h-15z"/><path class="st12" d="M326.1 53h15v15h-15z"/><path class="st13" d="M326.1 38h15v15h-15z"/><path class="st14" d="M311.1 83h15v15h-15z"/><path class="st15" d="M311.1 68h15v15h-15z"/><path class="st16" d="M311.1 53h15v15h-15z"/><path class="st17" d="M311.1 38h15v15h-15z"/><path class="st18" d="M296.1 83h15v15h-15z"/><path class="st19" d="M296.1 68h15v15h-15z"/><path class="st20" d="M296.1 53h15v15h-15z"/><path class="st21" d="M296.1 38h15v15h-15z"/><path class="st22" d="M281.1 83h15v15h-15z"/><path class="st23" d="M281.1 68h15v15h-15zM281.1 53h15v15h-15z"/><path class="st24" d="M281.1 38h15v15h-15z"/><path class="st25" d="M266.1 83h15v15h-15z"/><path class="st26" d="M266.1 68h15v15h-15z"/><path class="st27" d="M266.1 53h15v15h-15z"/><path class="st28" d="M266.1 38h15v15h-15z"/><path class="st2" d="M461.1 83h15v15h-15z"/><path class="st3" d="M461.1 68h15v15h-15z"/><path class="st4" d="M461.1 53h15v15h-15z"/><path class="st5" d="M461.1 38h15v15h-15z"/><path class="st6" d="M446.1 83h15v15h-15z"/><path class="st7" d="M446.1 68h15v15h-15z"/><path class="st8" d="M446.1 53h15v15h-15z"/><path class="st18" d="M446.1 38h15v15h-15z"/><path class="st10" d="M431.1 83h15v15h-15z"/><path class="st11" d="M431.1 68h15v15h-15z"/><path class="st2" d="M431.1 53h15v15h-15z"/><path class="st13" d="M431.1 38h15v15h-15z"/><path class="st14" d="M416.1 83h15v15h-15z"/><path class="st15" d="M416.1 68h15v15h-15z"/><path class="st16" d="M416.1 53h15v15h-15z"/><path class="st17" d="M416.1 38h15v15h-15z"/><path class="st18" d="M401.1 83h15v15h-15z"/><path class="st19" d="M401.1 68h15v15h-15z"/><path class="st18" d="M401.1 53h15v15h-15z"/><path class="st21" d="M401.1 38h15v15h-15zM386.1 83h15v15h-15z"/><path class="st23" d="M386.1 68h15v15h-15z"/><path class="st5" d="M386.1 53h15v15h-15z"/><path class="st24" d="M386.1 38h15v15h-15z"/><path class="st25" d="M371.1 83h15v15h-15z"/><path class="st29" d="M371.1 68h15v15h-15z"/><path class="st5" d="M371.1 53h15v15h-15z"/><path class="st28" d="M371.1 38h15v15h-15z"/></svg>