<?xml version="1.0" encoding="utf-8"?>
<!-- Generator: Adobe Illustrator 21.0.0, SVG Export Plug-In . SVG Version: 6.00 Build 0)  -->
<svg version="1.1" id="Layer_1" xmlns="http://www.w3.org/2000/svg" xmlns:xlink="http://www.w3.org/1999/xlink" x="0px" y="0px"
	 viewBox="0 0 280 280" style="enable-background:new 0 0 280 280;" xml:space="preserve">
<style type="text/css">
	.st0{fill:pink;stroke:#000;}
</style>
<g>
	<path class="st0" d="M140,278.5C63.6,278.5,1.5,216.4,1.5,140S63.6,1.5,140,1.5S278.5,63.6,278.5,140S216.4,278.5,140,278.5z"/>
	<path d="M140,3c36.6,0,71,14.3,96.9,40.1S277,103.4,277,140s-14.3,71-40.1,96.9S176.6,277,140,277s-71-14.3-96.9-40.1
		S3,176.6,3,140s14.3-71,40.1-96.9S103.4,3,140,3 M140,0C62.7,0,0,62.7,0,140s62.7,140,140,140s140-62.7,140-140S217.3,0,140,0
		L140,0z"/>
</g>
</svg>
