<?xml version="1.0" encoding="utf-8"?>
<!-- Generator: Adobe Illustrator 21.0.0, SVG Export Plug-In . SVG Version: 6.00 Build 0)  -->
<svg version="1.1" id="Layer_1" xmlns="http://www.w3.org/2000/svg" xmlns:xlink="http://www.w3.org/1999/xlink" x="0px" y="0px"
	 viewBox="0 0 340.6 69.4" style="enable-background:new 0 0 340.6 69.4;" xml:space="preserve">
<style type="text/css">
	.st0{clip-path:url(#SVGID_2_);fill:#231F20;}
	.st1{fill:#231F20;}
	.st2{clip-path:url(#SVGID_4_);fill:#231F20;}
	.st3{clip-path:url(#SVGID_6_);fill:#231F20;}
	.st4{clip-path:url(#SVGID_8_);fill:#231F20;}
	.st5{clip-path:url(#SVGID_10_);fill:#231F20;}
	.st6{clip-path:url(#SVGID_12_);fill:#231F20;}
	.st7{clip-path:url(#SVGID_14_);fill:none;stroke:#231F20;stroke-width:6;stroke-linejoin:bevel;}
	.st8{clip-path:url(#SVGID_16_);fill:#231F20;}
	.st9{clip-path:url(#SVGID_18_);fill:#231F20;}
	.st10{clip-path:url(#SVGID_20_);fill:none;stroke:#231F20;stroke-width:6;stroke-linejoin:bevel;}
	.st11{clip-path:url(#SVGID_22_);fill:#231F20;}
	.st12{clip-path:url(#SVGID_24_);fill:#231F20;}
	.st13{fill:none;stroke:#231F20;}
</style>
<g>
	<g>
		<defs>
			<rect id="SVGID_1_" y="0" width="59.8" height="69.4"/>
		</defs>
		<clipPath id="SVGID_2_">
			<use xlink:href="#SVGID_1_"  style="overflow:visible;"/>
		</clipPath>
		<path class="st0" d="M59,38.1c0,0-19.4-16.2-38.5,8c11.7-6.8,21.3-5.5,26.8-1.8c1.9,1.2,4,3.8,4.6,4.6c4.2-6.6,6.6-7.8,6.6-7.8
			L59,38.1z"/>
		<path class="st0" d="M58.9,38.2c0,0-7.7,1.9-7.5,16.4c0.2,12.9,0.4,12.4-1.8,14.8c3.7-0.3,7.2-4.1,8.7-7.6
			C62,54.7,57.4,47.7,58.9,38.2"/>
		<path class="st0" d="M35,10.9c0,0-10.4,2.6-10.1,22.3c0.3,17.4,0.6,16.9-2.5,20c5-0.4,9.7-5.5,11.8-10.3
			C39.2,33.3,32.9,23.7,35,10.9"/>
	</g>
	<polyline class="st1" points="45.8,10.8 43.8,10.8 43.8,58.6 45.3,58.6 45.8,58.6 45.8,22.4 45.8,10.4 	"/>
	<g>
		<defs>
			<rect id="SVGID_3_" y="0" width="59.8" height="69.4"/>
		</defs>
		<clipPath id="SVGID_4_">
			<use xlink:href="#SVGID_3_"  style="overflow:visible;"/>
		</clipPath>
		<path class="st2" d="M10.1,27.9c0,0,8.1,4,16.6,0c0,11.9,0.8,9.3,0.8,9.3s-8.1-3.3-15.8,0.3C11.7,26.5,10.1,27.9,10.1,27.9"/>
		<path class="st2" d="M42,2.3c0,0,6.4,6,13.9-0.2C53.5,14,38.6,13.1,38.6,13.1l-6.9-0.7L42,2.3z"/>
		<path class="st2" d="M27.7,0C27.7,0-7,11.4,1.3,45c7.2,23.1,40.5,30.8,56.4,2.4c-18.2,13.1-40.5,12.4-45-9.2
			C8.8,21.6,27.7,0,27.7,0"/>
	</g>
	<polygon class="st1" points="21.1,17 22.2,21.6 42.9,3.1 39.7,0.6 	"/>
</g>
<g>
	<g>
		<defs>
			<rect id="SVGID_5_" x="182" y="0" width="59.8" height="69.4"/>
		</defs>
		<clipPath id="SVGID_6_">
			<use xlink:href="#SVGID_5_"  style="overflow:visible;"/>
		</clipPath>
		<path class="st3" d="M241,38.1c0,0-19.4-16.2-38.5,8c11.7-6.8,21.3-5.5,26.8-1.8c1.9,1.2,4,3.8,4.6,4.6c4.2-6.6,6.6-7.8,6.6-7.8
			L241,38.1z"/>
		<path class="st3" d="M240.9,38.2c0,0-7.7,1.9-7.5,16.4c0.2,12.9,0.4,12.4-1.8,14.8c3.7-0.3,7.2-4.1,8.7-7.6
			C244,54.7,239.4,47.7,240.9,38.2"/>
		<path class="st3" d="M217,10.9c0,0-10.4,2.6-10.1,22.3c0.3,17.4,0.6,16.9-2.5,20c5-0.4,9.7-5.5,11.8-10.3
			C221.2,33.3,214.9,23.7,217,10.9"/>
	</g>
	<polyline class="st1" points="227.8,10.8 225.8,10.8 225.8,58.6 227.3,58.6 227.8,58.6 227.8,22.4 227.8,10.4 	"/>
	<g>
		<defs>
			<rect id="SVGID_7_" x="182" y="0" width="59.8" height="69.4"/>
		</defs>
		<clipPath id="SVGID_8_">
			<use xlink:href="#SVGID_7_"  style="overflow:visible;"/>
		</clipPath>
		<path class="st4" d="M192.1,27.9c0,0,8.1,4,16.6,0c0,11.9,0.8,9.3,0.8,9.3s-8.1-3.3-15.8,0.3C193.7,26.5,192.1,27.9,192.1,27.9"/>
		<path class="st4" d="M224,2.3c0,0,6.4,6,13.9-0.2c-2.4,11.8-17.3,10.9-17.3,10.9l-6.9-0.7L224,2.3z"/>
		<path class="st4" d="M209.7,0c0,0-34.7,11.4-26.5,45c7.2,23.1,40.5,30.8,56.4,2.4c-18.2,13.1-40.5,12.4-45-9.2
			C190.8,21.6,209.7,0,209.7,0"/>
	</g>
	<polygon class="st1" points="203.1,17 204.2,21.6 224.9,3.1 221.7,0.6 	"/>
</g>
<g>
	<g>
		<defs>
			<rect id="SVGID_9_" x="60.8" y="0.4" width="58.2" height="67.7"/>
		</defs>
		<clipPath id="SVGID_10_">
			<use xlink:href="#SVGID_9_"  style="overflow:visible;"/>
		</clipPath>
		<path class="st5" d="M92.4,9.5c0,0-12.1,2.9-11.7,24.9c0.4,19.5,0.7,18.9-2.8,22.4c5.8-0.4,11.2-6.2,13.7-11.5
			C97.3,34.6,90,23.9,92.4,9.5"/>
	</g>
	<polygon class="st1" points="100.4,0.4 100.4,0.9 96.3,0.9 96.3,64.7 99.3,64.7 100.4,64.7 100.4,16.3 	"/>
	<g>
		<defs>
			<rect id="SVGID_11_" x="60.8" y="0.4" width="58.2" height="67.7"/>
		</defs>
		<clipPath id="SVGID_12_">
			<use xlink:href="#SVGID_11_"  style="overflow:visible;"/>
		</clipPath>
		<path class="st6" d="M98.1,31.8c0,0,9.1,4.2,18.5,0c0,12.7,0.9,9.9,0.9,9.9s-9.1-3.5-17.6,0.3C100,30.2,98.1,31.8,98.1,31.8"/>
	</g>
	<polygon class="st1" points="73.3,20.5 74.1,25.9 100.1,6.4 96.6,3.2 	"/>
	<g>
		<defs>
			<rect id="SVGID_13_" x="60.8" y="0.4" width="58.2" height="67.7"/>
		</defs>
		<clipPath id="SVGID_14_">
			<use xlink:href="#SVGID_13_"  style="overflow:visible;"/>
		</clipPath>
		<path class="st7" d="M89.9,6.4c-14,0-25.5,13-25.5,29c0,16,11.4,29,25.5,29s25.5-13,25.5-29c0-12-6.6-22.9-16.5-27.2"/>
	</g>
	<polygon class="st1" points="75.8,11.4 75.8,58.5 63.3,34.3 	"/>
</g>
<g>
	<g>
		<defs>
			<rect id="SVGID_15_" x="120.2" y="0.6" width="58.2" height="67.7"/>
		</defs>
		<clipPath id="SVGID_16_">
			<use xlink:href="#SVGID_15_"  style="overflow:visible;"/>
		</clipPath>
		<path class="st8" d="M151.9,9.7c0,0-12.1,2.9-11.7,24.9c0.4,19.5,0.7,18.9-2.8,22.4c5.8-0.4,11.2-6.2,13.7-11.5
			C156.7,34.8,149.4,24.1,151.9,9.7"/>
	</g>
	<polygon class="st1" points="159.8,0.6 159.8,1.1 155.7,1.1 155.7,64.9 158.8,64.9 159.8,64.9 159.8,16.5 	"/>
	<g>
		<defs>
			<rect id="SVGID_17_" x="120.2" y="0.6" width="58.2" height="67.7"/>
		</defs>
		<clipPath id="SVGID_18_">
			<use xlink:href="#SVGID_17_"  style="overflow:visible;"/>
		</clipPath>
		<path class="st9" d="M157.6,32c0,0,9.1,4.2,18.5,0c0,12.7,0.9,9.9,0.9,9.9s-9.1-3.5-17.6,0.3C159.4,30.4,157.6,32,157.6,32"/>
	</g>
	<polygon class="st1" points="132.7,20.7 133.5,26.1 159.5,6.6 156,3.4 	"/>
	<g>
		<defs>
			<rect id="SVGID_19_" x="120.2" y="0.6" width="58.2" height="67.7"/>
		</defs>
		<clipPath id="SVGID_20_">
			<use xlink:href="#SVGID_19_"  style="overflow:visible;"/>
		</clipPath>
		<path class="st10" d="M149.3,6.6c-14,0-25.5,13-25.5,29c0,16,11.4,29,25.5,29s25.5-13,25.5-29c0-12-6.6-22.9-16.5-27.2"/>
	</g>
	<polygon class="st1" points="135.3,11.6 135.3,58.7 122.8,34.5 	"/>
</g>
<g>
	<defs>
		<rect id="SVGID_21_" x="241" y="1.4" width="52.8" height="66"/>
	</defs>
	<clipPath id="SVGID_22_">
		<use xlink:href="#SVGID_21_"  style="overflow:visible;"/>
	</clipPath>
	<path class="st11" d="M251.7,60c0,0,12.4-3.6,12.4-25.8c0-19.7-0.3-19,3.2-22.5c-5.7,0.3-13,10.1-13,14.6c-8.2,3.8-6.7,11.2-5.4,14
		l1.3,2.8c0,0,1.3-6.3,2.9-5.3C254.5,38.7,255.8,44,251.7,60"/>
	<path class="st11" d="M280.5,1.8c0,0-2.1,9.9-20.7,10.2c-16.4,0.3-15.9,0-18.8,3c0.2-4.7,4.9-9.3,9.3-11.4
		C259.2-1.4,268.4,4.2,280.5,1.8"/>
	<path class="st11" d="M276.3,8.8c0,0-10.6,2.7-10.3,22.7c0.3,17.8,0.6,17.2-2.5,20.4c5.1-0.4,9.9-5.6,12-10.5
		C280.5,31.7,274.1,21.9,276.3,8.8"/>
	<path class="st11" d="M293.8,58.7c0,0-23.1-17.4-45.7,8.6c15.8-8.2,28.6-6.2,34.1,0.1l11.2-5.7L293.8,58.7z"/>
</g>
<polyline class="st1" points="334.8,28.2 337.9,31.3 325.9,43 323.5,40.6 334.8,28.1 "/>
<g>
	<defs>
		<rect id="SVGID_23_" x="292" y="0.8" width="48.6" height="67.6"/>
	</defs>
	<clipPath id="SVGID_24_">
		<use xlink:href="#SVGID_23_"  style="overflow:visible;"/>
	</clipPath>
	<path class="st12" d="M333.3,30.8c0,0-20.6-9.9-30.7,10.3c13.2-7.7,23.2,2.2,23.2,2.2l7.6-9.1L333.3,30.8z"/>
	<path class="st12" d="M299.1,59.2c0,0,12.1-3.5,12.1-25.3c0-19.3-0.3-18.7,3.1-22.1c-5.6,0.3-12.7,10-12.7,14.3
		c-8.1,3.7-6.5,11-5.3,13.7l1.2,2.7c0,0,1.3-6.2,2.8-5.2C301.8,38.3,303.1,43.5,299.1,59.2"/>
	<path class="st12" d="M340.6,14.1c0,0-10.6-10.1-28.8-10.4c-16.1-0.3-15.6,0-18.4-2.9c0.2,4.7,4.8,9.1,9.1,11.2
		C311.2,16.9,328.7,11.7,340.6,14.1"/>
	<path class="st12" d="M334.9,58.9c0,0-22.8-16.2-42.9,9.3c13.9-8.1,25.3-6.1,30.1,0.1c9.9-5.6,14.5-7.1,14.5-7.1L334.9,58.9z"/>
</g>
<line class="st13" x1="314.8" y1="12.6" x2="314.8" y2="55.5"/>
<polyline class="st1" points="319,8.8 316.9,8.8 316.9,59.2 318.5,59.2 319,59.2 319,21 319,8.4 "/>
</svg>
