<svg id="Layer_1" xmlns="http://www.w3.org/2000/svg" xmlns:xlink="http://www.w3.org/1999/xlink" viewBox="0 0 340.6 69.4"><style>.st0{clip-path:url(#SVGID_2_);fill:#231F20;} .st1{clip-path:url(#SVGID_4_);fill:#231F20;} .st2{clip-path:url(#SVGID_6_);fill:#231F20;} .st3{fill:#231F20;} .st4{clip-path:url(#SVGID_8_);fill:#231F20;} .st5{clip-path:url(#SVGID_10_);fill:#231F20;} .st6{clip-path:url(#SVGID_12_);fill:#231F20;} .st7{clip-path:url(#SVGID_14_);fill:#231F20;} .st8{clip-path:url(#SVGID_16_);fill:#231F20;} .st9{clip-path:url(#SVGID_18_);fill:#231F20;} .st10{clip-path:url(#SVGID_20_);fill:#231F20;} .st11{clip-path:url(#SVGID_22_);fill:#231F20;} .st12{clip-path:url(#SVGID_24_);fill:#231F20;} .st13{clip-path:url(#SVGID_26_);fill:#231F20;} .st14{clip-path:url(#SVGID_28_);fill:#231F20;} .st15{clip-path:url(#SVGID_30_);fill:none;stroke:#231F20;stroke-width:6;stroke-linejoin:bevel;} .st16{clip-path:url(#SVGID_32_);fill:#231F20;} .st17{clip-path:url(#SVGID_34_);fill:#231F20;} .st18{clip-path:url(#SVGID_36_);fill:none;stroke:#231F20;stroke-width:6;stroke-linejoin:bevel;} .st19{clip-path:url(#SVGID_38_);fill:#231F20;} .st20{clip-path:url(#SVGID_40_);fill:#231F20;} .st21{clip-path:url(#SVGID_42_);fill:#231F20;} .st22{clip-path:url(#SVGID_44_);fill:#231F20;} .st23{clip-path:url(#SVGID_46_);fill:#231F20;} .st24{clip-path:url(#SVGID_48_);fill:#231F20;} .st25{clip-path:url(#SVGID_50_);fill:#231F20;} .st26{clip-path:url(#SVGID_52_);fill:#231F20;} .st27{fill:none;stroke:#231F20;}</style><defs><path id="SVGID_1_" d="M0 0h59.8v69.4H0z"/></defs><clipPath id="SVGID_2_"><use xlink:href="#SVGID_1_" overflow="visible"/></clipPath><path class="st0" d="M59 38.1s-19.4-16.2-38.5 8c11.7-6.8 21.3-5.5 26.8-1.8 1.9 1.2 4 3.8 4.6 4.6 4.2-6.6 6.6-7.8 6.6-7.8l.5-3z"/><defs><path id="SVGID_3_" d="M0 0h59.8v69.4H0z"/></defs><clipPath id="SVGID_4_"><use xlink:href="#SVGID_3_" overflow="visible"/></clipPath><path class="st1" d="M58.9 38.2s-7.7 1.9-7.5 16.4c.2 12.9.4 12.4-1.8 14.8 3.7-.3 7.2-4.1 8.7-7.6 3.7-7.1-.9-14.1.6-23.6"/><defs><path id="SVGID_5_" d="M0 0h59.8v69.4H0z"/></defs><clipPath id="SVGID_6_"><use xlink:href="#SVGID_5_" overflow="visible"/></clipPath><path class="st2" d="M35 10.9s-10.4 2.6-10.1 22.3c.3 17.4.6 16.9-2.5 20 5-.4 9.7-5.5 11.8-10.3 5-9.6-1.3-19.2.8-32"/><path class="st3" d="M45.8 10.8h-2v47.8h2V10.4"/><g><defs><path id="SVGID_7_" d="M0 0h59.8v69.4H0z"/></defs><clipPath id="SVGID_8_"><use xlink:href="#SVGID_7_" overflow="visible"/></clipPath><path class="st4" d="M10.1 27.9s8.1 4 16.6 0c0 11.9.8 9.3.8 9.3s-8.1-3.3-15.8.3c0-11-1.6-9.6-1.6-9.6"/><g><defs><path id="SVGID_9_" d="M0 0h59.8v69.4H0z"/></defs><clipPath id="SVGID_10_"><use xlink:href="#SVGID_9_" overflow="visible"/></clipPath><path class="st5" d="M42 2.3s6.4 6 13.9-.2c-2.4 11.9-17.3 11-17.3 11l-6.9-.7L42 2.3z"/></g><g><defs><path id="SVGID_11_" d="M0 0h59.8v69.4H0z"/></defs><clipPath id="SVGID_12_"><use xlink:href="#SVGID_11_" overflow="visible"/></clipPath><path class="st6" d="M27.7 0S-7 11.4 1.3 45c7.2 23.1 40.5 30.8 56.4 2.4-18.2 13.1-40.5 12.4-45-9.2C8.8 21.6 27.7 0 27.7 0"/></g></g><path class="st3" d="M21.1 17l1.1 4.6L42.9 3.1 39.7.6z"/><g><defs><path id="SVGID_13_" d="M182 0h59.8v69.4H182z"/></defs><clipPath id="SVGID_14_"><use xlink:href="#SVGID_13_" overflow="visible"/></clipPath><path class="st7" d="M241 38.1s-19.4-16.2-38.5 8c11.7-6.8 21.3-5.5 26.8-1.8 1.9 1.2 4 3.8 4.6 4.6 4.2-6.6 6.6-7.8 6.6-7.8l.5-3z"/><defs><path id="SVGID_15_" d="M182 0h59.8v69.4H182z"/></defs><clipPath id="SVGID_16_"><use xlink:href="#SVGID_15_" overflow="visible"/></clipPath><path class="st8" d="M240.9 38.2s-7.7 1.9-7.5 16.4c.2 12.9.4 12.4-1.8 14.8 3.7-.3 7.2-4.1 8.7-7.6 3.7-7.1-.9-14.1.6-23.6"/><g><defs><path id="SVGID_17_" d="M182 0h59.8v69.4H182z"/></defs><clipPath id="SVGID_18_"><use xlink:href="#SVGID_17_" overflow="visible"/></clipPath><path class="st9" d="M217 10.9s-10.4 2.6-10.1 22.3c.3 17.4.6 16.9-2.5 20 5-.4 9.7-5.5 11.8-10.3 5-9.6-1.3-19.2.8-32"/></g><path class="st3" d="M227.8 10.8h-2v47.8h2V10.4"/><g><defs><path id="SVGID_19_" d="M182 0h59.8v69.4H182z"/></defs><clipPath id="SVGID_20_"><use xlink:href="#SVGID_19_" overflow="visible"/></clipPath><path class="st10" d="M192.1 27.9s8.1 4 16.6 0c0 11.9.8 9.3.8 9.3s-8.1-3.3-15.8.3c0-11-1.6-9.6-1.6-9.6"/><g><defs><path id="SVGID_21_" d="M182 0h59.8v69.4H182z"/></defs><clipPath id="SVGID_22_"><use xlink:href="#SVGID_21_" overflow="visible"/></clipPath><path class="st11" d="M224 2.3s6.4 6 13.9-.2C235.5 13.9 220.6 13 220.6 13l-6.9-.7 10.3-10z"/></g><g><defs><path id="SVGID_23_" d="M182 0h59.8v69.4H182z"/></defs><clipPath id="SVGID_24_"><use xlink:href="#SVGID_23_" overflow="visible"/></clipPath><path class="st12" d="M209.7 0S175 11.4 183.2 45c7.2 23.1 40.5 30.8 56.4 2.4-18.2 13.1-40.5 12.4-45-9.2C190.8 21.6 209.7 0 209.7 0"/></g></g><path class="st3" d="M203.1 17l1.1 4.6 20.7-18.5-3.2-2.5z"/></g><g><defs><path id="SVGID_25_" d="M60.8.4H119v67.7H60.8z"/></defs><clipPath id="SVGID_26_"><use xlink:href="#SVGID_25_" overflow="visible"/></clipPath><path class="st13" d="M92.4 9.5s-12.1 2.9-11.7 24.9c.4 19.5.7 18.9-2.8 22.4 5.8-.4 11.2-6.2 13.7-11.5 5.7-10.7-1.6-21.4.8-35.8"/><path class="st3" d="M100.4.4v.5h-4.1v63.8h4.1V16.3z"/><defs><path id="SVGID_27_" d="M60.8.4H119v67.7H60.8z"/></defs><clipPath id="SVGID_28_"><use xlink:href="#SVGID_27_" overflow="visible"/></clipPath><path class="st14" d="M98.1 31.8s9.1 4.2 18.5 0c0 12.7.9 9.9.9 9.9s-9.1-3.5-17.6.3c.1-11.8-1.8-10.2-1.8-10.2"/><path class="st3" d="M73.3 20.5l.8 5.4 26-19.5-3.5-3.2z"/><g><defs><path id="SVGID_29_" d="M60.8.4H119v67.7H60.8z"/></defs><clipPath id="SVGID_30_"><use xlink:href="#SVGID_29_" overflow="visible"/></clipPath><path class="st15" d="M89.9 6.4c-14 0-25.5 13-25.5 29s11.4 29 25.5 29 25.5-13 25.5-29c0-12-6.6-22.9-16.5-27.2"/></g><path class="st3" d="M75.8 11.4v47.1L63.3 34.3z"/></g><g><defs><path id="SVGID_31_" d="M120.2.6h58.2v67.7h-58.2z"/></defs><clipPath id="SVGID_32_"><use xlink:href="#SVGID_31_" overflow="visible"/></clipPath><path class="st16" d="M151.9 9.7s-12.1 2.9-11.7 24.9c.4 19.5.7 18.9-2.8 22.4 5.8-.4 11.2-6.2 13.7-11.5 5.6-10.7-1.7-21.4.8-35.8"/><path class="st3" d="M159.8.6v.5h-4.1v63.8h4.1V16.5z"/><defs><path id="SVGID_33_" d="M120.2.6h58.2v67.7h-58.2z"/></defs><clipPath id="SVGID_34_"><use xlink:href="#SVGID_33_" overflow="visible"/></clipPath><path class="st17" d="M157.6 32s9.1 4.2 18.5 0c0 12.7.9 9.9.9 9.9s-9.1-3.5-17.6.3c0-11.8-1.8-10.2-1.8-10.2"/><path class="st3" d="M132.7 20.7l.8 5.4 26-19.5-3.5-3.2z"/><g><defs><path id="SVGID_35_" d="M120.2.6h58.2v67.7h-58.2z"/></defs><clipPath id="SVGID_36_"><use xlink:href="#SVGID_35_" overflow="visible"/></clipPath><path class="st18" d="M149.3 6.6c-14 0-25.5 13-25.5 29s11.4 29 25.5 29 25.5-13 25.5-29c0-12-6.6-22.9-16.5-27.2"/></g><path class="st3" d="M135.3 11.6v47.1l-12.5-24.2z"/></g><g><defs><path id="SVGID_37_" d="M241 1.4h52.8v66H241z"/></defs><clipPath id="SVGID_38_"><use xlink:href="#SVGID_37_" overflow="visible"/></clipPath><path class="st19" d="M251.7 60s12.4-3.6 12.4-25.8c0-19.7-.3-19 3.2-22.5-5.7.3-13 10.1-13 14.6-8.2 3.8-6.7 11.2-5.4 14l1.3 2.8s1.3-6.3 2.9-5.3c1.4.9 2.7 6.2-1.4 22.2"/><defs><path id="SVGID_39_" d="M241 1.4h52.8v66H241z"/></defs><clipPath id="SVGID_40_"><use xlink:href="#SVGID_39_" overflow="visible"/></clipPath><path class="st20" d="M280.5 1.8s-2.1 9.9-20.7 10.2c-16.4.3-15.9 0-18.8 3 .2-4.7 4.9-9.3 9.3-11.4 8.9-5 18.1.6 30.2-1.8"/><g><defs><path id="SVGID_41_" d="M241 1.4h52.8v66H241z"/></defs><clipPath id="SVGID_42_"><use xlink:href="#SVGID_41_" overflow="visible"/></clipPath><path class="st21" d="M276.3 8.8s-10.6 2.7-10.3 22.7c.3 17.8.6 17.2-2.5 20.4 5.1-.4 9.9-5.6 12-10.5 5-9.7-1.4-19.5.8-32.6"/></g><g><defs><path id="SVGID_43_" d="M241 1.4h52.8v66H241z"/></defs><clipPath id="SVGID_44_"><use xlink:href="#SVGID_43_" overflow="visible"/></clipPath><path class="st22" d="M293.8 58.7s-23.1-17.4-45.7 8.6c15.8-8.2 28.6-6.2 34.1.1l11.2-5.7.4-3z"/></g></g><path class="st3" d="M334.8 28.2l3.1 3.1-12 11.7-2.4-2.4 11.3-12.5"/><g><defs><path id="SVGID_45_" d="M292 .8h48.6v67.6H292z"/></defs><clipPath id="SVGID_46_"><use xlink:href="#SVGID_45_" overflow="visible"/></clipPath><path class="st23" d="M333.3 30.8s-20.6-9.9-30.7 10.3c13.2-7.7 23.2 2.2 23.2 2.2l7.6-9.1-.1-3.4z"/><defs><path id="SVGID_47_" d="M292 .8h48.6v67.6H292z"/></defs><clipPath id="SVGID_48_"><use xlink:href="#SVGID_47_" overflow="visible"/></clipPath><path class="st24" d="M299.1 59.2s12.1-3.5 12.1-25.3c0-19.3-.3-18.7 3.1-22.1-5.6.3-12.7 10-12.7 14.3-8.1 3.7-6.5 11-5.3 13.7l1.2 2.7s1.3-6.2 2.8-5.2c1.5 1 2.8 6.2-1.2 21.9"/><g><defs><path id="SVGID_49_" d="M292 .8h48.6v67.6H292z"/></defs><clipPath id="SVGID_50_"><use xlink:href="#SVGID_49_" overflow="visible"/></clipPath><path class="st25" d="M340.6 14.1S330 4 311.8 3.7c-16.1-.3-15.6 0-18.4-2.9.2 4.7 4.8 9.1 9.1 11.2 8.7 4.9 26.2-.3 38.1 2.1"/></g><g><defs><path id="SVGID_51_" d="M292 .8h48.6v67.6H292z"/></defs><clipPath id="SVGID_52_"><use xlink:href="#SVGID_51_" overflow="visible"/></clipPath><path class="st26" d="M334.9 58.9s-22.8-16.2-42.9 9.3c13.9-8.1 25.3-6.1 30.1.1 9.9-5.6 14.5-7.1 14.5-7.1l-1.7-2.3z"/></g></g><path class="st27" d="M314.8 12.6v42.9"/><path class="st3" d="M319 8.8h-2.1v50.4h2.1V8.4"/></svg>